<svg xmlns="http://www.w3.org/2000/svg" version="1.1" xmlnsXlink="http://www.w3.org/1999/xlink" xmlnsSvgjs="http://svgjs.dev/svgjs" width="150" height="150" viewBox="0 0 2000 1247"><g transform="matrix(1,0,0,1,-1.2121212121212466,0.504858299595071)"><svg viewBox="0 0 396 247" data-background-color="#ffffff" preserveAspectRatio="xMidYMid meet" height="1247" width="2000" xmlns="http://www.w3.org/2000/svg" xmlnsXlink="http://www.w3.org/1999/xlink"><g id="tight-bounds" transform="matrix(1,0,0,1,0.2400000000000091,-0.09999999999999432)"><svg viewBox="0 0 395.52 247.2" height="247.2" width="395.52"><g><svg></svg></g><g><svg viewBox="0 0 395.52 247.2" height="247.2" width="395.52"><g transform="matrix(1,0,0,1,75.54432,109.11850737516309)"><svg viewBox="0 0 244.43135999999998 28.962985249673817" height="28.962985249673817" width="244.43135999999998"><g><svg viewBox="0 0 244.43135999999998 28.962985249673817" height="28.962985249673817" width="244.43135999999998"><g><svg viewBox="0 0 244.43136 28.96298524967382" height="28.962985249673817" width="244.43135999999998"><g><svg viewBox="0 0 244.43136 28.96298524967382" height="28.96298524967382" width="244.43136"><g id="textblocktransform"><svg viewBox="0 0 244.43136 28.96298524967382" height="28.96298524967382" width="244.43136" id="textblock"><g><svg viewBox="0 0 244.43136 28.96298524967382" height="28.96298524967382" width="244.43136"><g transform="matrix(1,0,0,1,0,0)"><svg width="244.43136" viewBox="4.49 -37.4 411.64 48.78" height="28.96298524967382" data-palette-color="#000000"><path d="M39.21-24.51L39.21-24.51Q39.21-23.44 39.09-21.92 38.96-20.41 38.7-18.85 38.43-17.29 37.94-15.92 37.45-14.55 36.72-13.77L36.72-13.77Q36.43-13.43 34.84-13.11 33.25-12.79 31.03-12.48 28.81-12.16 26.27-11.87 23.73-11.57 21.46-11.35 19.19-11.13 17.53-10.99 15.87-10.84 15.43-10.84L15.43-10.84 15.04-0.68Q13.53-0.59 12.06-0.66 10.6-0.73 9.08-0.73L9.08-0.73Q8.11-0.73 7.13-0.68 6.15-0.63 5.18-0.54L5.18-0.54Q5.18-5.13 5.18-9.62 5.18-14.11 4.98-18.7L4.98-18.7Q4.83-22.85 4.71-26.95 4.59-31.05 4.49-35.21L4.49-35.21Q9.52-35.55 14.62-36.06 19.73-36.57 24.8-36.57L24.8-36.57Q25.68-36.57 27.59-36.4 29.49-36.23 31.59-35.86 33.69-35.5 35.47-34.96 37.26-34.42 37.84-33.74L37.84-33.74Q38.23-33.3 38.5-32.03 38.77-30.76 38.92-29.32 39.06-27.88 39.14-26.51 39.21-25.15 39.21-24.51ZM25.54-24.85L25.54-24.85Q25.54-25.29 25.49-25.98 25.44-26.66 25.32-27.32 25.2-27.98 24.95-28.54 24.71-29.1 24.32-29.35L24.32-29.35Q24.07-29.49 23.54-29.59 23-29.69 22.41-29.74 21.83-29.79 21.29-29.81 20.75-29.83 20.51-29.83L20.51-29.83Q18.7-29.83 16.89-29.64 15.09-29.44 13.23-29.15L13.23-29.15Q13.38-27.69 13.4-26.27 13.43-24.85 13.43-23.44L13.43-23.44Q13.43-21.14 13.57-18.8L13.57-18.8Q14.21-18.8 15.77-18.87 17.33-18.95 19.04-19.12 20.75-19.29 22.27-19.6 23.78-19.92 24.32-20.46L24.32-20.46Q25.2-21.29 25.37-22.49 25.54-23.68 25.54-24.85ZM72.7-20.61L72.7-20.61 72.7-19.48 63.28-19.04Q63.43-19.68 63.43-20.51L63.43-20.51Q63.43-21.73 63.08-22.09 62.74-22.46 61.57-22.46L61.57-22.46Q59.91-22.46 57.91-21.88 55.91-21.29 54.39-20.75L54.39-20.75Q54.15-18.6 54-16.46 53.85-14.31 53.85-12.16L53.85-12.16Q53.85-9.77 53.88-7.4 53.9-5.03 53.95-2.64L53.95-2.64 45.55-2.1Q45.31-5.22 45.07-8.33 44.82-11.43 44.63-14.55L44.63-14.55Q44.38-18.7 43.99-22.83 43.6-26.95 43.21-31.15L43.21-31.15Q45.99-30.96 48.75-30.59 51.51-30.22 54.29-29.69L54.29-29.69 54.05-25.59Q55.52-26.76 56.86-27.61 58.2-28.47 59.59-29.05 60.98-29.64 62.55-29.91 64.11-30.18 66.01-30.18L66.01-30.18Q67.28-30.18 68.65-29.91 70.02-29.64 70.99-28.66L70.99-28.66Q71.48-28.13 71.82-27.05 72.17-25.98 72.36-24.78 72.56-23.58 72.63-22.44 72.7-21.29 72.7-20.61ZM83.74-32.67L83.74-32.67Q83.74-31.69 83.32-30.83 82.91-29.98 82.2-29.35 81.49-28.71 80.61-28.34 79.73-27.98 78.85-27.98L78.85-27.98Q77.88-27.98 77.02-28.42 76.17-28.86 75.53-29.54 74.9-30.22 74.56-31.13 74.21-32.03 74.21-32.96L74.21-32.96Q74.21-33.89 74.58-34.69 74.95-35.5 75.56-36.08 76.17-36.67 76.97-37.01 77.78-37.35 78.71-37.35L78.71-37.35Q79.63-37.35 80.54-36.99 81.44-36.62 82.15-35.96 82.86-35.3 83.3-34.45 83.74-33.59 83.74-32.67ZM85.74-24.37L85.74-24.37Q85.49-21.78 85.35-19.24 85.2-16.7 85.05-14.16L85.05-14.16Q84.86-11.18 84.39-8.25 83.93-5.32 83.34-2.39L83.34-2.39 75.87-1.61Q75.87-3.17 75.9-4.69 75.92-6.2 75.92-7.76L75.92-7.76Q75.92-11.77 75.78-15.77 75.63-19.78 75.48-23.78L75.48-23.78Q78.07-23.88 80.59-24.07 83.1-24.27 85.74-24.37ZM115.03-8.64L115.03-8.64 114.2-0.05Q112.64 0.05 111.08 0.12 109.51 0.2 107.95 0.2L107.95 0.2Q107.12 0.2 105.75 0.15 104.39 0.1 102.92-0.02 101.46-0.15 100.14-0.37 98.82-0.59 98.04-0.93L98.04-0.93Q96.87-1.46 96.11-2.34 95.35-3.22 94.87-4.27 94.38-5.32 94.08-6.52 93.79-7.71 93.64-8.89L93.64-8.89Q93.5-10.01 93.43-11.3 93.35-12.6 93.33-13.96 93.3-15.33 93.3-16.63 93.3-17.92 93.3-19.04L93.3-19.04 93.3-20.51 90.28-20.51Q90.47-22.71 90.5-24.85 90.52-27 90.72-29.2L90.72-29.2 93.64-29.1 93.64-36.33Q96.43-35.79 99.19-35.77 101.95-35.74 104.73-35.55L104.73-35.55 104.63-28.08 108.73-27.83Q108.73-27.49 108.76-27.2 108.78-26.9 108.78-26.56L108.78-26.56Q108.78-25.2 108.56-23.9 108.34-22.61 108-21.29L108-21.29 104.44-21.29Q104.34-19.04 104.29-16.8 104.24-14.55 104.24-12.3L104.24-12.3Q104.24-11.23 104.31-10.38 104.39-9.52 104.7-8.94 105.02-8.35 105.75-8.06 106.49-7.76 107.81-7.76L107.81-7.76Q109.61-7.76 111.42-8.01 113.22-8.25 115.03-8.64ZM172.11-24.51L172.11-24.51Q172.11-23.44 171.98-21.92 171.86-20.41 171.59-18.85 171.33-17.29 170.84-15.92 170.35-14.55 169.62-13.77L169.62-13.77Q169.32-13.43 167.74-13.11 166.15-12.79 163.93-12.48 161.71-12.16 159.17-11.87 156.63-11.57 154.36-11.35 152.09-11.13 150.43-10.99 148.77-10.84 148.33-10.84L148.33-10.84 147.94-0.68Q146.42-0.59 144.96-0.66 143.49-0.73 141.98-0.73L141.98-0.73Q141-0.73 140.03-0.68 139.05-0.63 138.07-0.54L138.07-0.54Q138.07-5.13 138.07-9.62 138.07-14.11 137.88-18.7L137.88-18.7Q137.73-22.85 137.61-26.95 137.49-31.05 137.39-35.21L137.39-35.21Q142.42-35.55 147.52-36.06 152.62-36.57 157.7-36.57L157.7-36.57Q158.58-36.57 160.49-36.4 162.39-36.23 164.49-35.86 166.59-35.5 168.37-34.96 170.15-34.42 170.74-33.74L170.74-33.74Q171.13-33.3 171.4-32.03 171.67-30.76 171.81-29.32 171.96-27.88 172.03-26.51 172.11-25.15 172.11-24.51ZM158.43-24.85L158.43-24.85Q158.43-25.29 158.39-25.98 158.34-26.66 158.22-27.32 158.09-27.98 157.85-28.54 157.6-29.1 157.21-29.35L157.21-29.35Q156.97-29.49 156.43-29.59 155.9-29.69 155.31-29.74 154.72-29.79 154.19-29.81 153.65-29.83 153.41-29.83L153.41-29.83Q151.6-29.83 149.79-29.64 147.99-29.44 146.13-29.15L146.13-29.15Q146.28-27.69 146.3-26.27 146.33-24.85 146.33-23.44L146.33-23.44Q146.33-21.14 146.47-18.8L146.47-18.8Q147.11-18.8 148.67-18.87 150.23-18.95 151.94-19.12 153.65-19.29 155.16-19.6 156.68-19.92 157.21-20.46L157.21-20.46Q158.09-21.29 158.26-22.49 158.43-23.68 158.43-24.85ZM205.6-20.61L205.6-20.61 205.6-19.48 196.18-19.04Q196.32-19.68 196.32-20.51L196.32-20.51Q196.32-21.73 195.98-22.09 195.64-22.46 194.47-22.46L194.47-22.46Q192.81-22.46 190.81-21.88 188.8-21.29 187.29-20.75L187.29-20.75Q187.05-18.6 186.9-16.46 186.75-14.31 186.75-12.16L186.75-12.16Q186.75-9.77 186.78-7.4 186.8-5.03 186.85-2.64L186.85-2.64 178.45-2.1Q178.21-5.22 177.96-8.33 177.72-11.43 177.52-14.55L177.52-14.55Q177.28-18.7 176.89-22.83 176.5-26.95 176.11-31.15L176.11-31.15Q178.89-30.96 181.65-30.59 184.41-30.22 187.19-29.69L187.19-29.69 186.95-25.59Q188.41-26.76 189.76-27.61 191.1-28.47 192.49-29.05 193.88-29.64 195.44-29.91 197.01-30.18 198.91-30.18L198.91-30.18Q200.18-30.18 201.55-29.91 202.91-29.64 203.89-28.66L203.89-28.66Q204.38-28.13 204.72-27.05 205.06-25.98 205.26-24.78 205.45-23.58 205.53-22.44 205.6-21.29 205.6-20.61ZM242.71-22.02L242.71-22.02Q242.71-17.92 242.41-13.87 242.12-9.81 241.83-5.76L241.83-5.76Q236.36-5.27 230.94-4.93 225.52-4.59 220.05-4.59L220.05-4.59Q219.56-4.59 218.24-4.61 216.93-4.64 215.46-4.71 214-4.79 212.68-4.91 211.36-5.03 210.92-5.27L210.92-5.27Q209.31-6.15 208.67-7.5 208.04-8.84 208.04-10.55L208.04-10.55Q208.04-11.13 208.09-12.11 208.14-13.09 208.28-14.16 208.43-15.23 208.67-16.16 208.92-17.09 209.26-17.53L209.26-17.53Q209.7-18.12 211.26-18.53 212.82-18.95 215-19.19 217.17-19.43 219.68-19.58 222.2-19.73 224.49-19.8 226.79-19.87 228.6-19.87 230.4-19.87 231.18-19.87L231.18-19.87Q231.33-20.95 231.33-21.97L231.33-21.97Q231.33-22.07 231.33-22.49 231.33-22.9 231.28-23L231.28-23Q231.13-23.29 230.35-23.49 229.57-23.68 228.42-23.78 227.28-23.88 225.93-23.95 224.59-24.02 223.32-24.02 222.05-24.02 221.08-24.02 220.1-24.02 219.66-24.02L219.66-24.02Q216.58-24.02 213.51-23.9 210.43-23.78 207.36-23.68L207.36-23.68Q207.55-25.54 207.67-27.44 207.8-29.35 207.7-31.2L207.7-31.2Q211.26-31.84 214.85-32.1 218.44-32.37 222.1-32.37L222.1-32.37Q223.42-32.37 224.98-32.35 226.55-32.32 228.11-32.25 229.67-32.18 231.21-32.03 232.75-31.88 234.06-31.64L234.06-31.64Q235.43-31.4 236.77-30.76 238.12-30.13 239.29-29.2 240.46-28.27 241.34-27.08 242.22-25.88 242.61-24.51L242.61-24.51Q242.66-24.37 242.68-24.02 242.71-23.68 242.71-23.27 242.71-22.85 242.71-22.51 242.71-22.17 242.71-22.02ZM231.82-10.55L231.82-10.55 231.82-16.8Q230.4-16.85 228.99-16.87 227.57-16.89 226.15-16.89L226.15-16.89Q225.86-16.89 224.52-16.87 223.18-16.85 221.64-16.75 220.1-16.65 218.83-16.5 217.56-16.36 217.37-16.06L217.37-16.06Q217.12-15.67 217.05-15.26 216.97-14.84 216.97-14.4L216.97-14.4Q216.97-14.06 217.02-13.48 217.07-12.89 217.19-12.26 217.32-11.62 217.46-11.08 217.61-10.55 217.85-10.3L217.85-10.3Q218.05-10.06 218.51-9.94 218.98-9.81 219.51-9.74 220.05-9.67 220.59-9.64 221.13-9.62 221.42-9.62L221.42-9.62Q222.59-9.62 223.93-9.72 225.28-9.81 226.67-9.94 228.06-10.06 229.38-10.23 230.7-10.4 231.82-10.55ZM256.57-32.67L256.57-32.67Q256.57-31.69 256.13-30.86 255.69-30.03 255.01-29.37 254.33-28.71 253.45-28.34 252.57-27.98 251.64-27.98L251.64-27.98Q250.66-27.98 249.81-28.42 248.95-28.86 248.32-29.54 247.69-30.22 247.34-31.13 247-32.03 247-33.01L247-33.01Q247-34.86 248.34-36.13 249.69-37.4 251.54-37.4L251.54-37.4Q252.47-37.4 253.37-37.04 254.28-36.67 254.98-36.01 255.69-35.35 256.13-34.5 256.57-33.64 256.57-32.67ZM257.6-22.8L257.6-18.16Q257.6-14.26 257.6-10.45 257.6-6.64 257.55-2.73L257.55-2.73Q257.55-1.46 257.5-0.2 257.45 1.07 257.45 2.34L257.45 2.34Q257.45 3.47 257.35 4.79 257.26 6.1 256.94 7.35 256.62 8.59 255.91 9.57 255.2 10.55 253.94 10.94L253.94 10.94Q253.5 11.08 252.08 11.18 250.66 11.28 249.05 11.33 247.44 11.38 246 11.38 244.56 11.38 244.07 11.38L244.07 11.38Q243.34 11.38 242.61 11.35 241.87 11.33 241.19 11.33L241.19 11.33Q241.09 9.47 240.78 7.79 240.46 6.1 240.17 4.25L240.17 4.25 245 3.81Q245.68 3.76 246.49 3.71 247.29 3.66 247.98 3.44 248.66 3.22 249.1 2.71 249.54 2.2 249.54 1.22L249.54 1.22Q249.54-1.03 249.35-3.27 249.15-5.52 249-7.76L249-7.76Q248.76-11.43 248.47-15.09 248.17-18.75 247.88-22.51L247.88-22.51Q248.42-22.46 248.91-22.46 249.39-22.46 249.93-22.46L249.93-22.46Q251.84-22.46 253.76-22.58 255.69-22.71 257.6-22.8L257.6-22.8ZM297.68-22.02L297.68-22.02Q297.68-17.92 297.39-13.87 297.1-9.81 296.8-5.76L296.8-5.76Q291.33-5.27 285.92-4.93 280.5-4.59 275.03-4.59L275.03-4.59Q274.54-4.59 273.22-4.61 271.9-4.64 270.44-4.71 268.97-4.79 267.65-4.91 266.33-5.03 265.9-5.27L265.9-5.27Q264.28-6.15 263.65-7.5 263.01-8.84 263.01-10.55L263.01-10.55Q263.01-11.13 263.06-12.11 263.11-13.09 263.26-14.16 263.41-15.23 263.65-16.16 263.89-17.09 264.24-17.53L264.24-17.53Q264.67-18.12 266.24-18.53 267.8-18.95 269.97-19.19 272.15-19.43 274.66-19.58 277.17-19.73 279.47-19.8 281.76-19.87 283.57-19.87 285.38-19.87 286.16-19.87L286.16-19.87Q286.31-20.95 286.31-21.97L286.31-21.97Q286.31-22.07 286.31-22.49 286.31-22.9 286.26-23L286.26-23Q286.11-23.29 285.33-23.49 284.55-23.68 283.4-23.78 282.25-23.88 280.91-23.95 279.57-24.02 278.3-24.02 277.03-24.02 276.05-24.02 275.08-24.02 274.64-24.02L274.64-24.02Q271.56-24.02 268.48-23.9 265.41-23.78 262.33-23.68L262.33-23.68Q262.53-25.54 262.65-27.44 262.77-29.35 262.67-31.2L262.67-31.2Q266.24-31.84 269.83-32.1 273.42-32.37 277.08-32.37L277.08-32.37Q278.4-32.37 279.96-32.35 281.52-32.32 283.08-32.25 284.65-32.18 286.18-32.03 287.72-31.88 289.04-31.64L289.04-31.64Q290.41-31.4 291.75-30.76 293.09-30.13 294.26-29.2 295.44-28.27 296.32-27.08 297.19-25.88 297.58-24.51L297.58-24.51Q297.63-24.37 297.66-24.02 297.68-23.68 297.68-23.27 297.68-22.85 297.68-22.51 297.68-22.17 297.68-22.02ZM286.79-10.55L286.79-10.55 286.79-16.8Q285.38-16.85 283.96-16.87 282.55-16.89 281.13-16.89L281.13-16.89Q280.84-16.89 279.49-16.87 278.15-16.85 276.61-16.75 275.08-16.65 273.81-16.5 272.54-16.36 272.34-16.06L272.34-16.06Q272.1-15.67 272.02-15.26 271.95-14.84 271.95-14.4L271.95-14.4Q271.95-14.06 272-13.48 272.05-12.89 272.17-12.26 272.29-11.62 272.44-11.08 272.58-10.55 272.83-10.3L272.83-10.3Q273.02-10.06 273.49-9.94 273.95-9.81 274.49-9.74 275.03-9.67 275.56-9.64 276.1-9.62 276.39-9.62L276.39-9.62Q277.57-9.62 278.91-9.72 280.25-9.81 281.64-9.94 283.03-10.06 284.35-10.23 285.67-10.4 286.79-10.55ZM337.48-16.65L337.48-16.65Q337.48-15.97 337.45-15.16 337.43-14.36 337.3-13.53 337.18-12.7 336.96-11.94 336.74-11.18 336.35-10.6L336.35-10.6Q335.52-9.38 334.79-8.52 334.06-7.67 333.2-7.1 332.35-6.54 331.27-6.2 330.2-5.86 328.73-5.66L328.73-5.66Q326.54-5.32 324.39-5.05 322.24-4.79 320.04-4.79L320.04-4.79Q319.07-4.79 318.04-4.88 317.02-4.98 316.14-5.52L316.14-5.52Q315.65-5.76 315.09-6.18 314.53-6.59 313.99-7.06 313.45-7.52 312.94-7.98 312.43-8.45 312.04-8.79L312.04-8.79 311.74 3.47Q310.38 3.56 309.01 3.54 307.64 3.52 306.23 3.52L306.23 3.52Q305.39 3.52 304.64 3.54 303.88 3.56 303.05 3.61L303.05 3.61Q303.25-0.59 303.42-4.76 303.59-8.94 303.59-13.09L303.59-13.09 303.59-13.67Q303.59-18.31 303.34-22.9 303.1-27.49 302.9-32.13L302.9-32.13Q305.35-32.32 307.74-32.47 310.13-32.62 312.57-32.81L312.57-32.81 312.91-30.22Q316.28-30.62 319.68-30.88 323.07-31.15 326.49-31.15L326.49-31.15Q326.93-31.15 327.44-31.18 327.95-31.2 328.39-31.1L328.39-31.1Q329.56-30.86 330.79-30.49 332.01-30.13 333.08-29.54 334.15-28.96 334.98-28.05 335.81-27.15 336.25-25.88L336.25-25.88Q336.55-24.9 336.79-23.73 337.04-22.56 337.18-21.31 337.33-20.07 337.4-18.87 337.48-17.68 337.48-16.65ZM327.86-17.53L327.86-17.53Q327.86-18.12 327.76-18.8 327.66-19.48 327.27-19.92L327.27-19.92Q326.29-21.04 324.83-21.66 323.36-22.27 321.95-22.27L321.95-22.27Q320.78-22.27 319.41-22.05 318.04-21.83 316.67-21.46 315.31-21.09 313.99-20.63 312.67-20.17 311.6-19.73L311.6-19.73 312.04-13.18Q313.84-12.65 315.92-12.21 317.99-11.77 319.85-11.77L319.85-11.77Q320.34-11.77 321.36-11.74 322.39-11.72 323.49-11.79 324.58-11.87 325.54-12.01 326.49-12.16 326.78-12.55L326.78-12.55Q327.03-12.84 327.22-13.5 327.42-14.16 327.56-14.92 327.71-15.67 327.78-16.38 327.86-17.09 327.86-17.53ZM376.58-22.02L376.58-22.02Q376.58-17.92 376.29-13.87 376-9.81 375.7-5.76L375.7-5.76Q370.24-5.27 364.82-4.93 359.4-4.59 353.93-4.59L353.93-4.59Q353.44-4.59 352.12-4.61 350.8-4.64 349.34-4.71 347.87-4.79 346.55-4.91 345.24-5.03 344.8-5.27L344.8-5.27Q343.19-6.15 342.55-7.5 341.92-8.84 341.92-10.55L341.92-10.55Q341.92-11.13 341.96-12.11 342.01-13.09 342.16-14.16 342.31-15.23 342.55-16.16 342.79-17.09 343.14-17.53L343.14-17.53Q343.58-18.12 345.14-18.53 346.7-18.95 348.87-19.19 351.05-19.43 353.56-19.58 356.08-19.73 358.37-19.8 360.67-19.87 362.47-19.87 364.28-19.87 365.06-19.87L365.06-19.87Q365.21-20.95 365.21-21.97L365.21-21.97Q365.21-22.07 365.21-22.49 365.21-22.9 365.16-23L365.16-23Q365.01-23.29 364.23-23.49 363.45-23.68 362.3-23.78 361.15-23.88 359.81-23.95 358.47-24.02 357.2-24.02 355.93-24.02 354.95-24.02 353.98-24.02 353.54-24.02L353.54-24.02Q350.46-24.02 347.38-23.9 344.31-23.78 341.23-23.68L341.23-23.68Q341.43-25.54 341.55-27.44 341.67-29.35 341.57-31.2L341.57-31.2Q345.14-31.84 348.73-32.1 352.32-32.37 355.98-32.37L355.98-32.37Q357.3-32.37 358.86-32.35 360.42-32.32 361.98-32.25 363.55-32.18 365.08-32.03 366.62-31.88 367.94-31.64L367.94-31.64Q369.31-31.4 370.65-30.76 371.99-30.13 373.17-29.2 374.34-28.27 375.22-27.08 376.1-25.88 376.49-24.51L376.49-24.51Q376.54-24.37 376.56-24.02 376.58-23.68 376.58-23.27 376.58-22.85 376.58-22.51 376.58-22.17 376.58-22.02ZM365.7-10.55L365.7-10.55 365.7-16.8Q364.28-16.85 362.86-16.87 361.45-16.89 360.03-16.89L360.03-16.89Q359.74-16.89 358.4-16.87 357.05-16.85 355.51-16.75 353.98-16.65 352.71-16.5 351.44-16.36 351.24-16.06L351.24-16.06Q351-15.67 350.92-15.26 350.85-14.84 350.85-14.4L350.85-14.4Q350.85-14.06 350.9-13.48 350.95-12.89 351.07-12.26 351.19-11.62 351.34-11.08 351.49-10.55 351.73-10.3L351.73-10.3Q351.93-10.06 352.39-9.94 352.85-9.81 353.39-9.74 353.93-9.67 354.46-9.64 355-9.62 355.29-9.62L355.29-9.62Q356.47-9.62 357.81-9.72 359.15-9.81 360.54-9.94 361.94-10.06 363.25-10.23 364.57-10.4 365.7-10.55ZM405.59-8.64L405.59-8.64 404.76-0.05Q403.19 0.05 401.63 0.12 400.07 0.2 398.51 0.2L398.51 0.2Q397.68 0.2 396.31 0.15 394.94 0.1 393.48-0.02 392.01-0.15 390.69-0.37 389.37-0.59 388.59-0.93L388.59-0.93Q387.42-1.46 386.66-2.34 385.91-3.22 385.42-4.27 384.93-5.32 384.64-6.52 384.35-7.71 384.2-8.89L384.2-8.89Q384.05-10.01 383.98-11.3 383.91-12.6 383.88-13.96 383.86-15.33 383.86-16.63 383.86-17.92 383.86-19.04L383.86-19.04 383.86-20.51 380.83-20.51Q381.02-22.71 381.05-24.85 381.07-27 381.27-29.2L381.27-29.2 384.2-29.1 384.2-36.33Q386.98-35.79 389.74-35.77 392.5-35.74 395.28-35.55L395.28-35.55 395.18-28.08 399.29-27.83Q399.29-27.49 399.31-27.2 399.34-26.9 399.34-26.56L399.34-26.56Q399.34-25.2 399.12-23.9 398.9-22.61 398.55-21.29L398.55-21.29 394.99-21.29Q394.89-19.04 394.84-16.8 394.79-14.55 394.79-12.3L394.79-12.3Q394.79-11.23 394.87-10.38 394.94-9.52 395.26-8.94 395.58-8.35 396.31-8.06 397.04-7.76 398.36-7.76L398.36-7.76Q400.17-7.76 401.97-8.01 403.78-8.25 405.59-8.64ZM414.13-32.67L414.13-32.67Q414.13-31.69 413.71-30.83 413.3-29.98 412.59-29.35 411.88-28.71 411-28.34 410.12-27.98 409.24-27.98L409.24-27.98Q408.27-27.98 407.41-28.42 406.56-28.86 405.92-29.54 405.29-30.22 404.95-31.13 404.61-32.03 404.61-32.96L404.61-32.96Q404.61-33.89 404.97-34.69 405.34-35.5 405.95-36.08 406.56-36.67 407.36-37.01 408.17-37.35 409.1-37.35L409.1-37.35Q410.03-37.35 410.93-36.99 411.83-36.62 412.54-35.96 413.25-35.3 413.69-34.45 414.13-33.59 414.13-32.67ZM416.13-24.37L416.13-24.37Q415.89-21.78 415.74-19.24 415.59-16.7 415.45-14.16L415.45-14.16Q415.25-11.18 414.79-8.25 414.32-5.32 413.74-2.39L413.74-2.39 406.27-1.61Q406.27-3.17 406.29-4.69 406.32-6.2 406.32-7.76L406.32-7.76Q406.32-11.77 406.17-15.77 406.02-19.78 405.88-23.78L405.88-23.78Q408.46-23.88 410.98-24.07 413.49-24.27 416.13-24.37Z" opacity="1" transform="matrix(1,0,0,1,0,0)" fill="#ffffff" class="wordmark-text-0" data-fill-palette-color="primary" id="text-0"></path></svg></g></svg></g></svg></g></svg></g></svg></g></svg></g></svg></g><path d="M174.929 103.119L174.929 38.798 5.325 38.798 5.325 208.402 174.929 208.402 174.929 144.081 172.317 144.081 172.317 205.79 7.937 205.79 7.937 41.41 172.317 41.41 172.317 103.119Z" fill="#ffffff" stroke="transparent" data-fill-palette-color="primary"></path></svg></g><defs></defs></svg><rect width="395.52" height="247.2" fill="none" stroke="none" visibility="hidden"></rect></g></svg></g></svg>